<?xml version="1.0" encoding="UTF-8" standalone="no"?>
<svg width="20px" height="18px" viewBox="0 0 20 18" version="1.1" xmlns="http://www.w3.org/2000/svg" xmlns:xlink="http://www.w3.org/1999/xlink">
    <!-- Generator: Sketch 41.2 (35397) - http://www.bohemiancoding.com/sketch -->
    <title>save-active</title>
    <desc>Created with Sketch.</desc>
    <defs></defs>
    <g id="Page-1" stroke="none" stroke-width="1" fill="none" fill-rule="evenodd">
        <g id="H-saves" transform="translate(-391.000000, -933.000000)">
            <g id="save-active" transform="translate(391.000000, 933.000000)">
                <path d="M10.5,15 L9.97583333,14.6665594 C9.15983333,14.1474734 2,9.4892179 2,5.90608304 C2,3.20070808 4.30633333,1 7.1425,1 C8.49588889,1 9.76238889,1.75970389 10.5085,2.31663985 C11.2498889,1.7588027 12.5069444,1 13.8593889,1 C16.6946111,1 19,3.20070808 19,5.90608304 C19,9.4892179 11.8401667,14.1474734 11.0241667,14.6665594 L10.5,15 L10.5,15 Z" id="heart-copy" fill="#FF585B"></path>
                <path d="M10,17.476875 L9.38333333,17.060625 C8.42333333,16.412625 0,10.5975 0,6.1245 C0,2.74725 2.71333333,0 6.05,0 C7.64222222,0 9.13222222,0.948375 10.01,1.643625 C10.8822222,0.94725 12.3611111,0 13.9522222,0 C17.2877778,9.99200722e-16 20,2.74725 20,6.1245 C20,10.5975 11.5766667,16.412625 10.6166667,17.060625 L10,17.476875 L10,17.476875 Z M6.05,2.25 C3.93888889,2.25 2.22222222,3.988125 2.22222222,6.1245 C2.22222222,8.44875 6.75888889,12.466125 10,14.76225 C13.24,12.463875 17.7777778,8.445375 17.7777778,6.1245 C17.7777778,3.988125 16.0611111,2.25 13.9522222,2.25 C12.7188889,2.25 11.2288889,3.492 10.8044444,3.927375 L10.0188889,4.732875 L9.22888889,3.933 C8.76333333,3.466125 7.28222222,2.25 6.05,2.25 L6.05,2.25 Z" id="heart" fill="#FFFFFF"></path>
            </g>
        </g>
    </g>
</svg>